<svg width="17" height="76" viewBox="0 0 17 76" fill="none" xmlns="http://www.w3.org/2000/svg">
<path d="M8.50021 52.5C8.50021 54.7091 7.43321 56 5.50021 56C3.56722 56 1.50006 56 2.00006 54C1.50006 52 5.567 47.5 7.5 47.5C9.433 47.5 8.50021 50.2909 8.50021 52.5Z" fill="#FF5A00" fill-opacity="0.7"/>
<path d="M4.91797 4.72226C4.91797 4.1207 5.03646 3.5556 5.27344 3.02695C5.51042 2.50742 5.83398 2.04713 6.24414 1.64609C6.6543 1.24505 7.12826 0.930598 7.66602 0.702734C8.21289 0.483984 8.79167 0.374609 9.40234 0.374609C10.0495 0.374609 10.6556 0.488541 11.2207 0.716406C11.7949 0.94427 12.2962 1.26328 12.7246 1.67344C13.1621 2.08359 13.5039 2.56211 13.75 3.10898C13.9961 3.65586 14.1191 4.24375 14.1191 4.87266C14.1191 5.9026 13.9961 6.97812 13.75 8.09922C13.75 8.11745 13.6589 8.13112 13.4766 8.14023C13.3034 8.15846 13.0937 8.17213 12.8477 8.18125C12.6107 8.19036 12.3874 8.19948 12.1777 8.20859C11.9681 8.21771 11.8268 8.22226 11.7539 8.22226C11.6172 8.22226 11.5488 8.11289 11.5488 7.89414C11.5488 7.83034 11.5671 7.76654 11.6035 7.70273C11.7676 7.66628 11.9362 7.59792 12.1094 7.49766C12.2826 7.40651 12.4785 7.26523 12.6973 7.07383C12.916 6.88242 13.0937 6.59987 13.2305 6.22617C13.3763 5.85247 13.4492 5.41953 13.4492 4.92734C13.4492 4.3349 13.276 3.82448 12.9297 3.39609C12.5924 2.97682 12.1413 2.65325 11.5762 2.42539C11.0111 2.20664 10.3822 2.09726 9.68945 2.09726C8.92383 2.09726 8.23112 2.22031 7.61133 2.46641C6.99154 2.72161 6.49479 3.09075 6.12109 3.57383C5.75651 4.0569 5.57422 4.63568 5.57422 5.31016C5.57422 6.11224 5.82943 6.75482 6.33984 7.23789C6.49479 7.38372 6.66797 7.4931 6.85937 7.56601C7.0599 7.64805 7.23307 7.71185 7.37891 7.75742C7.53385 7.80299 7.61133 7.84401 7.61133 7.88047C7.61133 8.19948 7.57031 8.37721 7.48828 8.41367C7.43359 8.41367 7.30143 8.39088 7.0918 8.34531C6.89128 8.30885 6.66797 8.26328 6.42187 8.20859C6.1849 8.15391 5.97526 8.09466 5.79297 8.03086C5.61068 7.97617 5.51042 7.9306 5.49219 7.89414C5.10937 7.10117 4.91797 6.04388 4.91797 4.72226ZM4.95898 11.993C4.99544 11.9565 5.08203 11.9383 5.21875 11.9383C5.34635 11.9383 5.41016 11.9565 5.41016 11.993C5.41016 12.0659 5.42838 12.1616 5.46484 12.2801C5.5013 12.3986 5.54687 12.5079 5.60156 12.6082C5.65625 12.7176 5.70182 12.7768 5.73828 12.7859C5.89323 12.8224 6.05729 12.8497 6.23047 12.868C6.40365 12.8862 6.57682 12.8953 6.75 12.8953L12.4375 12.8953C12.7839 12.8953 13.0937 12.868 13.3672 12.8133C13.513 12.7768 13.5859 12.549 13.5859 12.1297L13.5859 11.993C13.5859 11.9383 13.6406 11.9109 13.75 11.9109C13.8958 11.9109 13.9687 11.9383 13.9687 11.993C14.0143 12.4943 14.0918 12.9454 14.2012 13.3465C14.3105 13.7566 14.3926 14.0301 14.4473 14.1668L14.4883 14.2625L14.4883 14.2898C14.4883 14.3263 14.4609 14.3628 14.4062 14.3992C14.3516 14.4448 14.306 14.4721 14.2695 14.4812C13.9323 14.3719 13.5039 14.3172 12.9844 14.3172L6.96875 14.3172C6.39453 14.3172 5.98437 14.3491 5.73828 14.4129C5.70182 14.4311 5.65625 14.4904 5.60156 14.5906C5.54687 14.6909 5.5013 14.8003 5.46484 14.9187C5.42838 15.0372 5.41016 15.1193 5.41016 15.1648C5.41016 15.1922 5.34635 15.2059 5.21875 15.2059C5.09115 15.215 5.00456 15.2104 4.95898 15.1922C4.97721 14.9096 4.99544 14.6225 5.01367 14.3309C5.0319 14.0392 5.04102 13.7977 5.04102 13.6062C5.04102 13.3237 5.0319 13.032 5.01367 12.7312C4.99544 12.4396 4.97721 12.1935 4.95898 11.993ZM4.95898 18.7715C4.99544 18.735 5.08203 18.7168 5.21875 18.7168C5.34635 18.7168 5.41016 18.735 5.41016 18.7715C5.41016 18.8444 5.42838 18.9401 5.46484 19.0586C5.5013 19.1771 5.54687 19.2865 5.60156 19.3867C5.65625 19.4961 5.70182 19.5553 5.73828 19.5645C5.89323 19.6009 6.05729 19.6283 6.23047 19.6465C6.40364 19.6647 6.57682 19.6738 6.75 19.6738L8.95117 19.6738C9.37956 19.6738 9.67122 19.6009 9.82617 19.4551C9.92643 19.373 9.99479 19.2682 10.0312 19.1406C10.0677 19.0221 10.0905 18.9128 10.0996 18.8125C10.1087 18.7214 10.1224 18.6758 10.1406 18.6758C10.4141 18.6758 10.5508 18.6986 10.5508 18.7441C10.5872 19.0358 10.6374 19.3548 10.7012 19.7012C10.7741 20.0566 10.8424 20.3757 10.9062 20.6582L11.0156 21.0957C11.0156 21.1595 10.9245 21.1914 10.7422 21.1914C10.6237 21.1914 10.4505 21.1732 10.2227 21.1367C10.0039 21.1094 9.78516 21.0957 9.56641 21.0957L6.96875 21.0957C6.39453 21.0957 5.98437 21.1276 5.73828 21.1914C5.70182 21.2096 5.65625 21.2689 5.60156 21.3691C5.54687 21.4694 5.5013 21.5788 5.46484 21.6973C5.42838 21.8158 5.41016 21.8978 5.41016 21.9434C5.41016 21.9707 5.34635 21.9844 5.21875 21.9844C5.09114 21.9935 5.00456 21.9889 4.95898 21.9707C4.97721 21.6882 4.99544 21.401 5.01367 21.1094C5.0319 20.8177 5.04101 20.5762 5.04101 20.3848C5.04101 20.1022 5.0319 19.8105 5.01367 19.5098C4.99544 19.2181 4.97721 18.972 4.95898 18.7715ZM12.4375 20.2754C12.4375 20.0475 12.5195 19.8516 12.6836 19.6875C12.8477 19.5234 13.0436 19.4414 13.2715 19.4414C13.4993 19.4414 13.6908 19.5234 13.8457 19.6875C14.0098 19.8516 14.0918 20.0475 14.0918 20.2754C14.0918 20.5033 14.0098 20.6947 13.8457 20.8496C13.6908 21.0137 13.4993 21.0957 13.2715 21.0957C13.0436 21.0957 12.8477 21.0137 12.6836 20.8496C12.5195 20.6947 12.4375 20.5033 12.4375 20.2754ZM4.91797 28.3801C4.91797 27.8241 5.05469 27.3228 5.32812 26.8762C5.60156 26.4296 5.9707 26.0741 6.43555 25.8098C6.90039 25.5454 7.41536 25.4133 7.98047 25.4133C8.53646 25.4133 9.04232 25.5363 9.49805 25.7824C9.96289 26.0376 10.3366 26.3885 10.6191 26.8352C10.9017 27.2818 11.043 27.7967 11.043 28.3801C11.043 28.8631 10.9609 29.2915 10.7969 29.6652C10.6419 30.048 10.4687 30.3215 10.2773 30.4855C9.96745 30.4855 9.70768 30.4309 9.49805 30.3215C9.29752 30.2212 9.19726 30.0663 9.19726 29.8566C9.19726 29.6835 9.24284 29.5422 9.33398 29.4328C9.42513 29.3326 9.57552 29.2277 9.78515 29.1184C10.2044 28.9178 10.4141 28.6125 10.4141 28.2023C10.4141 27.8104 10.2135 27.496 9.8125 27.259C9.42057 27.0311 8.92383 26.9172 8.32226 26.9172C7.50195 26.9172 6.89127 27.0858 6.49023 27.423C6.09831 27.7603 5.90234 28.1887 5.90234 28.7082C5.90234 28.9452 5.92057 29.1411 5.95703 29.2961C5.99349 29.451 6.0345 29.6014 6.08008 29.7473C6.10742 29.8202 6.15299 29.9113 6.2168 30.0207C6.28971 30.1301 6.35351 30.2303 6.4082 30.3215C6.472 30.4126 6.5039 30.4582 6.5039 30.4582C6.49479 30.4764 6.46745 30.4992 6.42187 30.5266C6.3763 30.5539 6.33073 30.5676 6.28515 30.5676C6.11198 30.5676 5.91601 30.4582 5.69726 30.2395C5.48763 30.0298 5.30534 29.7564 5.15039 29.4191C4.99544 29.091 4.91797 28.7447 4.91797 28.3801ZM4.94531 34.2426C4.98177 34.2061 5.06836 34.1879 5.20508 34.1879C5.3418 34.1879 5.41015 34.2061 5.41015 34.2426C5.41015 34.3155 5.42383 34.4158 5.45117 34.5434C5.48763 34.6801 5.52864 34.8031 5.57422 34.9125C5.6289 35.031 5.67448 35.0948 5.71094 35.1039C5.96614 35.1677 6.29883 35.1996 6.70898 35.1996L12.3828 35.1996C12.5651 35.1996 12.7337 35.1905 12.8887 35.1723C13.0436 35.1631 13.1849 35.1495 13.3125 35.1312C13.4583 35.0948 13.5312 34.8578 13.5312 34.4203L13.5312 34.2973C13.5312 34.2426 13.6042 34.2152 13.75 34.2152C13.8958 34.2152 13.9687 34.2426 13.9687 34.2973C13.9961 34.5798 14.0326 34.8487 14.0781 35.1039C14.1237 35.3591 14.1693 35.5733 14.2148 35.7465C14.2878 35.9835 14.3516 36.1794 14.4062 36.3344C14.4609 36.4893 14.4883 36.5668 14.4883 36.5668L14.4883 36.5941C14.4883 36.6306 14.4609 36.6671 14.4062 36.7035C14.3607 36.74 14.3151 36.7628 14.2695 36.7719C13.9141 36.6625 13.4857 36.6078 12.9844 36.6078L8.41797 36.6078C8.47265 36.8174 8.52278 36.9542 8.56836 37.018C8.74153 37.2094 8.91927 37.4145 9.10156 37.6332C9.29297 37.8611 9.42969 38.0251 9.51172 38.1254C9.64844 38.2895 9.76693 38.4216 9.86719 38.5219C9.97656 38.6221 10.0768 38.6723 10.168 38.6723C10.2682 38.6723 10.332 38.572 10.3594 38.3715C10.3776 38.1618 10.3913 38.057 10.4004 38.057C10.4733 38.0297 10.5553 38.016 10.6465 38.016C10.7376 38.016 10.7878 38.0342 10.7969 38.0707L10.7969 39.3969C10.7969 39.5245 10.8014 39.7068 10.8105 39.9437C10.8197 40.1807 10.8333 40.4815 10.8516 40.8461C10.806 40.9099 10.7194 40.9372 10.5918 40.9281C10.4642 40.9281 10.4004 40.9008 10.4004 40.8461C10.4004 40.5271 10.3092 40.2126 10.127 39.9027C10.054 39.7842 9.93555 39.6111 9.77148 39.3832C9.60742 39.1553 9.42057 38.9138 9.21094 38.6586C9.0013 38.4034 8.78255 38.1664 8.55469 37.9477C7.77995 38.6768 7.16015 39.2328 6.69531 39.6156C6.23958 39.9984 5.92969 40.2901 5.76562 40.4906C5.65625 40.6273 5.5651 40.8005 5.49219 41.0102C5.41927 41.2289 5.38281 41.3839 5.38281 41.475C5.38281 41.5115 5.30534 41.5297 5.15039 41.5297C5.04101 41.5297 4.97721 41.5251 4.95898 41.516L5.02734 39.9164C5.04557 39.6247 5.04101 39.3285 5.01367 39.0277C4.98633 38.727 4.96354 38.4809 4.94531 38.2895C4.98177 38.253 5.0638 38.2348 5.1914 38.2348C5.31901 38.2348 5.38281 38.253 5.38281 38.2895C5.38281 38.3806 5.40104 38.4854 5.4375 38.6039C5.48307 38.7224 5.52864 38.7816 5.57422 38.7816C5.59245 38.7816 5.60156 38.7771 5.60156 38.768L7.83008 36.7719L7.78906 36.6078L6.9414 36.6078C6.36719 36.6078 5.95703 36.6443 5.71094 36.7172C5.67448 36.7354 5.6289 36.7992 5.57422 36.9086C5.52864 37.0271 5.48763 37.1501 5.45117 37.2777C5.42383 37.4145 5.41015 37.5102 5.41015 37.5648C5.41015 37.5922 5.3418 37.6059 5.20508 37.6059C5.07747 37.615 4.99088 37.6104 4.94531 37.5922C4.95443 37.5557 4.9681 37.4281 4.98633 37.2094C4.99544 36.9906 5.00456 36.7582 5.01367 36.5121C5.0319 36.266 5.04101 36.07 5.04101 35.9242C5.04101 35.7784 5.0319 35.5824 5.01367 35.3363C5.00456 35.0902 4.99544 34.8578 4.98633 34.6391C4.9681 34.4294 4.95443 34.2973 4.94531 34.2426Z" fill="black"/>
<path d="M8.4 50.8C8.08174 50.8 7.77652 50.9264 7.55147 51.1515C7.32643 51.3765 7.2 51.6817 7.2 52V54.4C7.2 54.7183 7.32643 55.0235 7.55147 55.2485C7.77652 55.4736 8.08174 55.6 8.4 55.6C8.71826 55.6 9.02348 55.4736 9.24853 55.2485C9.47357 55.0235 9.6 54.7183 9.6 54.4V52C9.6 51.6817 9.47357 51.3765 9.24853 51.1515C9.02348 50.9264 8.71826 50.8 8.4 50.8ZM8.4 46C6.17218 46 4.03561 46.885 2.4603 48.4603C0.884997 50.0356 0 52.1722 0 54.4V61.6C3.31971e-08 63.8278 0.884997 65.9644 2.4603 67.5397C4.03561 69.115 6.17218 70 8.4 70C10.6278 70 12.7644 69.115 14.3397 67.5397C15.915 65.9644 16.8 63.8278 16.8 61.6V54.4C16.8 52.1722 15.915 50.0356 14.3397 48.4603C12.7644 46.885 10.6278 46 8.4 46ZM14.4 61.6C14.4 63.1913 13.7679 64.7174 12.6426 65.8426C11.5174 66.9679 9.9913 67.6 8.4 67.6C6.8087 67.6 5.28258 66.9679 4.15736 65.8426C3.03214 64.7174 2.4 63.1913 2.4 61.6V54.4C2.4 52.8087 3.03214 51.2826 4.15736 50.1574C5.28258 49.0321 6.8087 48.4 8.4 48.4C9.9913 48.4 11.5174 49.0321 12.6426 50.1574C13.7679 51.2826 14.4 52.8087 14.4 54.4V61.6Z" fill="black"/>
</svg>
