<svg width="160" height="68" viewBox="0 0 160 68" fill="none" xmlns="http://www.w3.org/2000/svg">
<path d="M32.6777 33.8837C28.8236 37.0073 30.6328 41.496 29.5342 47.7564C28.0226 56.8681 32.1946 60.7001 36.0677 59.2093C39.9407 57.7186 39.9142 51.8383 43.6087 49.3758C47.0776 46.7061 52.5647 48.5152 55.0353 45.1305C57.6187 41.8493 55.3256 36.5123 46.4139 35.1925C40.4783 34.385 36.7738 31.1843 32.6777 33.8837Z" fill="#FFE55E"/>
<path d="M19.9124 37.919C24.4878 39.8143 27.6245 43.6567 26.9329 46.4822C26.1497 49.4158 21.8204 50.2459 17.245 48.3505C12.6696 46.4552 9.53292 42.6128 10.2245 39.7873C11.0077 36.8537 15.337 36.0236 19.9124 37.919Z" fill="#FFAA00"/>
<path d="M39.7239 23.3947C39.8075 28.3004 42.3352 32.2317 45.2869 32.3273C48.2387 32.4228 50.6625 28.6129 50.579 23.7073C50.4954 18.8016 47.9677 14.8702 45.0159 14.7747C41.9682 14.7923 39.5444 18.6021 39.7239 23.3947Z" fill="#FFAA00"/>
<path d="M23.511 23.479C27.3464 27.2016 28.6338 32.1788 26.5146 34.4266C24.3955 36.6744 19.5365 35.4071 15.701 31.6845C11.8656 27.9619 10.5782 22.9847 12.6974 20.7369C14.8165 18.4891 19.6755 19.7564 23.511 23.479Z" fill="#FFAA00"/>
<path d="M25.5344 21.7814C27.7043 26.3014 31.6353 28.7458 34.2674 27.4701C36.9921 26.0852 37.4425 21.445 35.3815 17.0249C33.2115 12.5049 29.2805 10.0606 26.6484 11.3362C23.9075 12.5119 23.3644 17.2614 25.5344 21.7814Z" fill="#FFAA00"/>
</svg>