 <svg width="135" height="68" viewBox="0 0 159 68" fill="none" xmlns="http://www.w3.org/2000/svg">
                <path d="M32.1777 33.8837C28.3236 37.0073 30.1328 41.496 29.0342 47.7564C27.5226 56.8681 31.6946 60.7001 35.5677 59.2093C39.4407 57.7186 39.4142 51.8383 43.1087 49.3758C46.5776 46.7061 52.0647 48.5152 54.5353 45.1305C57.1187 41.8493 54.8256 36.5123 45.9139 35.1925C39.9783 34.385 36.2738 31.1843 32.1777 33.8837Z" fill="#FFE55E"/>
                <path d="M19.4124 37.919C23.9878 39.8143 27.1245 43.6567 26.4329 46.4822C25.6497 49.4158 21.3204 50.2459 16.745 48.3505C12.1696 46.4552 9.03292 42.6128 9.72448 39.7873C10.5077 36.8537 14.837 36.0236 19.4124 37.919Z" fill="#FFAA00"/>
                <path d="M39.2239 23.3947C39.3075 28.3004 41.8352 32.2317 44.7869 32.3273C47.7387 32.4228 50.1625 28.6129 50.079 23.7073C49.9954 18.8016 47.4677 14.8702 44.5159 14.7747C41.4682 14.7923 39.0444 18.6021 39.2239 23.3947Z" fill="#FFAA00"/>
                <path d="M23.011 23.479C26.8464 27.2016 28.1338 32.1788 26.0146 34.4266C23.8955 36.6744 19.0365 35.4071 15.201 31.6845C11.3656 27.9619 10.0782 22.9847 12.1974 20.7369C14.3165 18.4891 19.1755 19.7564 23.011 23.479Z" fill="#FFAA00"/>
                <path d="M25.0344 21.7814C27.2043 26.3014 31.1353 28.7458 33.7674 27.4701C36.4921 26.0852 36.9425 21.445 34.8815 17.0249C32.7115 12.5049 28.7805 10.0606 26.1484 11.3362C23.4075 12.5119 22.8644 17.2614 25.0344 21.7814Z" fill="#FFAA00"/>
                <path d="M90.2882 32.6909V41.7065C89.934 42.1336 89.3872 42.5972 88.6476 43.0972C87.908 43.5868 86.9549 44.0086 85.7882 44.3628C84.6215 44.717 83.2101 44.894 81.5538 44.894C80.0851 44.894 78.7465 44.6545 77.5382 44.1753C76.3299 43.6857 75.2882 42.9722 74.4132 42.0347C73.5486 41.0972 72.882 39.9513 72.4132 38.5972C71.9445 37.2326 71.7101 35.6753 71.7101 33.9253V32.5034C71.7101 30.7534 71.934 29.1961 72.382 27.8315C72.8403 26.467 73.4913 25.3159 74.3351 24.3784C75.1788 23.4409 76.184 22.7274 77.3507 22.2378C78.5174 21.7482 79.8142 21.5034 81.2413 21.5034C83.2205 21.5034 84.8455 21.8263 86.1163 22.4722C87.3872 23.1076 88.3559 23.993 89.0226 25.1284C89.6997 26.2534 90.1163 27.5451 90.2726 29.0034H85.7257C85.6111 28.2326 85.3924 27.5607 85.0695 26.9878C84.7465 26.4149 84.283 25.967 83.6788 25.644C83.0851 25.3211 82.3142 25.1597 81.3663 25.1597C80.5851 25.1597 79.8872 25.3211 79.2726 25.644C78.6684 25.9565 78.158 26.4201 77.7413 27.0347C77.3247 27.6493 77.007 28.4097 76.7882 29.3159C76.5695 30.2222 76.4601 31.2743 76.4601 32.4722V33.9253C76.4601 35.1128 76.5747 36.1649 76.8038 37.0815C77.033 37.9878 77.3715 38.7534 77.8195 39.3784C78.2778 39.993 78.8403 40.4565 79.507 40.769C80.1736 41.0815 80.9497 41.2378 81.8351 41.2378C82.5747 41.2378 83.1892 41.1753 83.6788 41.0503C84.1788 40.9253 84.5799 40.7743 84.882 40.5972C85.1945 40.4097 85.434 40.2326 85.6007 40.0659V36.0347H81.3195V32.6909H90.2882Z" fill="#FFAA00"/>
                <path d="M98.5382 20.5815V44.5815H94.0226V20.5815H98.5382ZM101.538 36.3003V35.9722C101.538 34.7326 101.715 33.592 102.069 32.5503C102.424 31.4982 102.939 30.5868 103.616 29.8159C104.293 29.0451 105.127 28.4461 106.116 28.019C107.106 27.5815 108.241 27.3628 109.523 27.3628C110.804 27.3628 111.944 27.5815 112.944 28.019C113.944 28.4461 114.783 29.0451 115.46 29.8159C116.148 30.5868 116.668 31.4982 117.023 32.5503C117.377 33.592 117.554 34.7326 117.554 35.9722V36.3003C117.554 37.5295 117.377 38.6701 117.023 39.7222C116.668 40.7638 116.148 41.6753 115.46 42.4565C114.783 43.2274 113.95 43.8263 112.96 44.2534C111.97 44.6805 110.835 44.894 109.554 44.894C108.273 44.894 107.132 44.6805 106.132 44.2534C105.142 43.8263 104.304 43.2274 103.616 42.4565C102.939 41.6753 102.424 40.7638 102.069 39.7222C101.715 38.6701 101.538 37.5295 101.538 36.3003ZM106.038 35.9722V36.3003C106.038 37.0086 106.101 37.6701 106.226 38.2847C106.351 38.8993 106.549 39.4409 106.819 39.9097C107.101 40.368 107.465 40.7274 107.913 40.9878C108.361 41.2482 108.908 41.3784 109.554 41.3784C110.179 41.3784 110.715 41.2482 111.163 40.9878C111.611 40.7274 111.97 40.368 112.241 39.9097C112.512 39.4409 112.71 38.8993 112.835 38.2847C112.97 37.6701 113.038 37.0086 113.038 36.3003V35.9722C113.038 35.2847 112.97 34.6388 112.835 34.0347C112.71 33.4201 112.507 32.8784 112.226 32.4097C111.955 31.9305 111.595 31.5555 111.148 31.2847C110.7 31.0138 110.158 30.8784 109.523 30.8784C108.887 30.8784 108.345 31.0138 107.898 31.2847C107.46 31.5555 107.101 31.9305 106.819 32.4097C106.549 32.8784 106.351 33.4201 106.226 34.0347C106.101 34.6388 106.038 35.2847 106.038 35.9722ZM127.304 41.3784C127.856 41.3784 128.345 41.2743 128.773 41.0659C129.2 40.8472 129.533 40.5451 129.773 40.1597C130.023 39.7638 130.153 39.3003 130.163 38.769H134.398C134.387 39.9565 134.069 41.0138 133.444 41.9409C132.819 42.8576 131.981 43.5815 130.929 44.1128C129.877 44.6336 128.7 44.894 127.398 44.894C126.085 44.894 124.939 44.6753 123.96 44.2378C122.991 43.8003 122.184 43.1961 121.538 42.4253C120.892 41.644 120.408 40.7378 120.085 39.7065C119.762 38.6649 119.601 37.5503 119.601 36.3628V35.9097C119.601 34.7118 119.762 33.5972 120.085 32.5659C120.408 31.5243 120.892 30.618 121.538 29.8472C122.184 29.0659 122.991 28.4565 123.96 28.019C124.929 27.5815 126.064 27.3628 127.366 27.3628C128.752 27.3628 129.965 27.6284 131.007 28.1597C132.059 28.6909 132.882 29.4513 133.476 30.4409C134.08 31.4201 134.387 32.5815 134.398 33.9253H130.163C130.153 33.3628 130.033 32.8524 129.804 32.394C129.585 31.9357 129.262 31.5711 128.835 31.3003C128.418 31.019 127.903 30.8784 127.288 30.8784C126.632 30.8784 126.095 31.019 125.679 31.3003C125.262 31.5711 124.939 31.9461 124.71 32.4253C124.481 32.894 124.319 33.4305 124.226 34.0347C124.142 34.6284 124.101 35.2534 124.101 35.9097V36.3628C124.101 37.019 124.142 37.6493 124.226 38.2534C124.309 38.8576 124.465 39.394 124.694 39.8628C124.934 40.3315 125.262 40.7013 125.679 40.9722C126.095 41.243 126.637 41.3784 127.304 41.3784ZM146.132 40.769V33.2378C146.132 32.6961 146.043 32.2326 145.866 31.8472C145.689 31.4513 145.413 31.144 145.038 30.9253C144.674 30.7065 144.2 30.5972 143.616 30.5972C143.116 30.5972 142.684 30.6857 142.319 30.8628C141.955 31.0295 141.674 31.2743 141.476 31.5972C141.278 31.9097 141.179 32.2795 141.179 32.7065H136.679C136.679 31.9878 136.845 31.3055 137.179 30.6597C137.512 30.0138 137.997 29.4461 138.632 28.9565C139.267 28.4565 140.023 28.0659 140.898 27.7847C141.783 27.5034 142.773 27.3628 143.866 27.3628C145.179 27.3628 146.345 27.5815 147.366 28.019C148.387 28.4565 149.189 29.1128 149.773 29.9878C150.366 30.8628 150.663 31.9565 150.663 33.269V40.5034C150.663 41.4305 150.72 42.1909 150.835 42.7847C150.95 43.368 151.116 43.8784 151.335 44.3159V44.5815H146.788C146.569 44.1232 146.403 43.5503 146.288 42.8628C146.184 42.1649 146.132 41.467 146.132 40.769ZM146.726 34.2847L146.757 36.8315H144.241C143.648 36.8315 143.132 36.8993 142.694 37.0347C142.257 37.1701 141.898 37.3628 141.616 37.6128C141.335 37.8524 141.127 38.1336 140.991 38.4565C140.866 38.7795 140.804 39.1336 140.804 39.519C140.804 39.9045 140.892 40.2534 141.069 40.5659C141.247 40.868 141.502 41.1076 141.835 41.2847C142.168 41.4513 142.559 41.5347 143.007 41.5347C143.684 41.5347 144.273 41.3993 144.773 41.1284C145.273 40.8576 145.658 40.5243 145.929 40.1284C146.21 39.7326 146.356 39.3576 146.366 39.0034L147.554 40.9097C147.387 41.3368 147.158 41.7795 146.866 42.2378C146.585 42.6961 146.226 43.1284 145.788 43.5347C145.351 43.9305 144.825 44.2586 144.21 44.519C143.595 44.769 142.866 44.894 142.023 44.894C140.95 44.894 139.976 44.6805 139.101 44.2534C138.236 43.8159 137.549 43.217 137.038 42.4565C136.538 41.6857 136.288 40.8107 136.288 39.8315C136.288 38.9461 136.455 38.1597 136.788 37.4722C137.122 36.7847 137.611 36.2065 138.257 35.7378C138.913 35.2586 139.731 34.8993 140.71 34.6597C141.689 34.4097 142.825 34.2847 144.116 34.2847H146.726ZM158.882 20.5815V44.5815H154.366V20.5815H158.882Z" fill="#FFE55E"/>
</svg>