<svg width="35" height="63" viewBox="0 0 35 63" fill="none" xmlns="http://www.w3.org/2000/svg">
<path d="M6.1999 0.378828C5.5299 0.858828 5.2199 1.72883 5.2199 2.63883C5.2199 3.99883 6.0399 5.09883 7.4099 5.09883C9.9599 5.09883 8.8899 1.60883 10.6799 1.60883C11.1199 1.60883 11.7599 1.92883 11.7599 2.98883C11.7599 3.53883 11.5099 4.00883 11.1399 4.24883L11.8499 5.02883C12.4999 4.49883 12.6599 3.75883 12.6599 2.98883C12.6599 1.28883 11.5099 0.588828 10.6799 0.588828C7.9199 0.588828 8.9299 4.07883 7.2999 4.07883C6.5199 4.07883 6.1199 3.29883 6.1199 2.66883C6.1199 2.09883 6.3599 1.50883 6.8799 1.16883L6.1999 0.378828ZM11.5599 11.5455C12.3099 10.9755 12.6599 9.99547 12.6599 9.06547C12.6599 6.88547 11.0799 5.37547 8.8799 5.37547C7.0999 5.37547 5.2199 6.76547 5.2199 9.01547C5.2199 10.6355 6.1699 11.4855 6.4599 11.6955L7.0699 10.8855C6.4799 10.4655 6.1199 9.84547 6.1199 9.03547C6.1199 7.38547 7.3899 6.39547 8.8799 6.39547C10.4899 6.39547 11.7599 7.44547 11.7599 9.03547C11.7599 9.68547 11.4699 10.3455 10.9499 10.7455L11.5599 11.5455ZM5.3999 12.1565L5.3999 13.1165L8.5199 13.1165L8.5199 14.1865L5.3999 15.9865L5.3999 17.1865L8.6299 15.1765C8.7499 16.2465 9.5999 16.9165 10.4999 16.9165C11.3899 16.9165 12.4799 16.4565 12.4799 14.6465L12.4799 12.1565L5.3999 12.1565ZM11.6399 13.1165L11.6399 14.3765C11.6399 15.1365 11.4599 15.8965 10.4999 15.8965C9.5399 15.8965 9.3599 15.1365 9.3599 14.3765L9.3599 13.1165L11.6399 13.1165ZM5.2199 20.8198C5.2199 22.9798 6.8399 24.5098 8.9399 24.5098C11.0399 24.5098 12.6599 22.9798 12.6599 20.8198C12.6599 18.6598 11.0399 17.1298 8.9399 17.1298C6.8399 17.1298 5.2199 18.6598 5.2199 20.8198ZM6.1199 20.8198C6.1199 19.1998 7.3899 18.1498 8.9399 18.1498C10.4899 18.1498 11.7599 19.1998 11.7599 20.8198C11.7599 22.4398 10.4899 23.4898 8.9399 23.4898C7.3899 23.4898 6.1199 22.4398 6.1199 20.8198ZM5.3999 25.1901L5.3999 29.4001L6.2999 29.4001L6.2999 26.1501L12.4799 26.1501L12.4799 25.1901L5.3999 25.1901ZM5.3999 29.6756L5.3999 33.8856L6.2999 33.8856L6.2999 30.6356L12.4799 30.6356L12.4799 29.6756L5.3999 29.6756Z" fill="black"/>
<path d="M8.4 43.8C8.08174 43.8 7.77652 43.9264 7.55147 44.1515C7.32643 44.3765 7.2 44.6817 7.2 45V47.4C7.2 47.7183 7.32643 48.0235 7.55147 48.2485C7.77652 48.4736 8.08174 48.6 8.4 48.6C8.71826 48.6 9.02348 48.4736 9.24853 48.2485C9.47357 48.0235 9.6 47.7183 9.6 47.4V45C9.6 44.6817 9.47357 44.3765 9.24853 44.1515C9.02348 43.9264 8.71826 43.8 8.4 43.8ZM8.4 39C6.17218 39 4.03561 39.885 2.4603 41.4603C0.884997 43.0356 0 45.1722 0 47.4V54.6C3.31971e-08 56.8278 0.884997 58.9644 2.4603 60.5397C4.03561 62.115 6.17218 63 8.4 63C10.6278 63 12.7644 62.115 14.3397 60.5397C15.915 58.9644 16.8 56.8278 16.8 54.6V47.4C16.8 45.1722 15.915 43.0356 14.3397 41.4603C12.7644 39.885 10.6278 39 8.4 39ZM14.4 54.6C14.4 56.1913 13.7679 57.7174 12.6426 58.8426C11.5174 59.9679 9.9913 60.6 8.4 60.6C6.8087 60.6 5.28258 59.9679 4.15736 58.8426C3.03214 57.7174 2.4 56.1913 2.4 54.6V47.4C2.4 45.8087 3.03214 44.2826 4.15736 43.1574C5.28258 42.0321 6.8087 41.4 8.4 41.4C9.9913 41.4 11.5174 42.0321 12.6426 43.1574C13.7679 44.2826 14.4 45.8087 14.4 47.4V54.6Z" fill="black"/>
<path d="M26.0929 13.7071C26.4835 14.0976 27.1166 14.0976 27.5072 13.7071L33.8711 7.34315C34.2616 6.95262 34.2616 6.31946 33.8711 5.92893C33.4806 5.53841 32.8474 5.53841 32.4569 5.92893L26.8 11.5858L21.1432 5.92893C20.7527 5.53841 20.1195 5.53841 19.729 5.92893C19.3385 6.31946 19.3385 6.95262 19.729 7.34315L26.0929 13.7071ZM25.8 4.37114e-08L25.8 13L27.8 13L27.8 -4.37114e-08L25.8 4.37114e-08Z" fill="black"/>
</svg>
